Coordinates
version=1
nRows=11
nColumns=36
inDegrees=yes

Units are S.I. units (second, meters, Newtons, ...)
If the header above contains a line with 'inDegrees', this indicates whether rotational values are in degrees (yes) or radians (no).

endheader
time	pelvis_tilt	pelvis_list	pelvis_rotation	pelvis_tx	pelvis_ty	pelvis_tz	hip_flexion_r	hip_adduction_r	hip_rotation_r	knee_angle_r	knee_angle_r_beta	ankle_angle_r	subtalar_angle_r	mtp_angle_r	hip_flexion_l	hip_adduction_l	hip_rotation_l	knee_angle_l	knee_angle_l_beta	ankle_angle_l	subtalar_angle_l	mtp_angle_l	lumbar_extension	lumbar_bending	lumbar_rotation	arm_flex_r	arm_add_r	arm_rot_r	elbow_flex_r	pro_sup_r	arm_flex_l	arm_add_l	arm_rot_l	elbow_flex_l	pro_sup_l
      5.91250000	    -12.56934152	     -0.27150514	      2.13926623	      0.36979744	      1.21015854	     -0.06983491	     19.52968482	     -4.21277258	     -1.09274336	     12.59249809	      0.21978055	    -27.13352742	     -1.83243507	     -7.49999987	     27.95813705	     -5.77423516	      2.06366374	     27.43482375	      0.47882800	    -19.30489169	      1.91145648	     -7.49999987	    -13.83457892	     -0.24640853	     -3.37284669	     -6.49801132	      6.82091299	    -89.41032111	    111.62479933	     49.11440899	     -8.79627226	      1.25028196	   -114.35956587	    102.20545599	     60.63269186
      5.91666670	    -12.53957745	     -0.26087089	      2.09707619	      0.37058487	      1.21029877	     -0.07012205	     19.37369174	     -4.22155933	     -0.89377235	     12.14807897	      0.21202398	    -27.27405514	     -1.82011162	     -7.49999987	     28.00583154	     -5.86123341	      1.85759179	     27.48055504	      0.47962617	    -19.17748173	      2.09992256	     -7.49999987	    -13.89971891	     -0.31212614	     -3.25314132	     -6.49107149	      5.82517047	    -87.88859922	    111.84985970	     49.61726758	     -8.56820485	      0.88337043	   -113.56336570	    100.30910887	     60.40134757
      5.92083330	    -12.56705495	     -0.23853027	      2.12187447	      0.36919099	      1.20969643	     -0.06890377	     19.31266346	     -4.22648395	     -0.82219261	     11.66171329	      0.20353529	    -27.17021327	     -2.01776676	     -7.49999987	     28.15689780	     -6.01335113	      1.57044157	     27.39709936	      0.47816959	    -19.29540607	      1.89035629	     -7.49999987	    -13.81982695	     -0.55815104	     -3.89199641	     -6.59843791	      5.93469453	    -91.03152820	    120.46247627	     49.69261562	     -9.80952908	      1.29223109	   -109.17659631	     94.43022501	     60.30312052
      5.92500000	    -12.44573359	     -0.12535690	      2.17729416	      0.36999116	      1.21054704	     -0.06941685	     19.00833090	     -4.39275950	     -0.89309395	     11.05628046	      0.19296850	    -27.04999496	     -2.04460845	     -7.49999987	     28.08889597	     -5.92679415	      1.29780596	     27.46324021	      0.47932396	    -19.24788850	      1.91955024	     -7.49999987	    -14.09079039	     -0.66335790	     -3.38402387	     -5.60554415	      5.59093951	    -97.65848748	    127.88014310	     44.19772783	     -9.35537635	      1.00326689	   -109.62353087	     94.12419876	     56.80347544
      5.92916670	    -12.40272256	     -0.01299153	      2.23988457	      0.37035099	      1.20916268	     -0.06889742	     18.77834074	     -4.50621501	     -0.72043062	     10.40025165	      0.18151863	    -26.89802201	     -1.96220730	     -7.49999987	     28.10441313	     -5.87955741	      1.02369747	     27.52070540	      0.48032692	    -19.02409715	      1.89620900	     -7.49999987	    -14.23580564	     -0.81964249	     -3.38025425	     -4.90821731	      5.17702317	   -104.13504056	    133.57464995	     43.42389450	     -9.32769504	      0.63429201	   -110.67061535	     94.01539244	     55.63027308
      5.93333330	    -12.45414783	      0.10043611	      2.11071829	      0.36973448	      1.20659647	     -0.06766086	     18.78133500	     -4.54217515	     -0.46384343	      9.90073308	      0.17280039	    -26.72727962	     -2.23696295	     -7.49999987	     28.22018168	     -5.90200712	      0.87848330	     27.48170769	      0.47964628	    -18.79363972	      2.04756506	     -7.49999987	    -14.18092488	     -1.20973723	     -3.86273839	     -4.29316764	      4.12992946	   -108.54220689	    138.13578752	     44.12376689	     -9.95839585	      0.50196056	   -113.12378697	     96.47066565	     55.26650520
      5.93750000	    -12.53771075	      0.28062866	      2.24707557	      0.37074283	      1.20668614	     -0.06740049	     18.68476782	     -4.70854024	     -0.26599871	      9.28541053	      0.16206099	    -26.15028180	     -2.34674434	     -7.49999987	     28.31612450	     -5.77267453	      0.61493062	     27.41290284	      0.47844541	    -18.54661964	      2.08840171	     -7.49999987	    -14.35837969	     -1.70654817	     -3.09388769	     -4.41728263	      3.18426102	   -116.77027794	    141.29156759	     36.54543424	     -9.77461087	      0.01651267	   -113.71820334	     99.10604736	     48.08348384
      5.94166670	    -12.63257981	      0.46440168	      2.34588759	      0.37097914	      1.20641953	     -0.06664234	     18.65469894	     -4.86796663	     -0.18617773	      8.75709261	      0.15284010	    -25.56182545	     -2.54702144	     -7.49999987	     28.42786522	     -5.65741736	      0.39573155	     27.32351336	      0.47688527	    -18.26882944	      2.36502715	     -7.49999987	    -14.42300135	     -2.28945554	     -2.68833831	     -4.38407881	      2.02125946	   -123.15865590	    143.15379904	     36.77252832	     -9.39447342	     -0.97663026	   -118.66526486	    104.86565763	     46.32049682
      5.94583330	    -12.50055845	      0.58964268	      2.42124902	      0.37024580	      1.20622508	     -0.06585775	     18.47899276	     -5.01049633	     -0.31531725	      8.33959495	      0.14555339	    -25.10975731	     -3.10170465	     -7.49999987	     28.35456813	     -5.58856828	      0.18933196	     27.41310152	      0.47844888	    -17.92621193	      2.64917869	     -7.49999987	    -14.82346500	     -2.35290387	     -2.21260768	     -3.58030380	      2.29943597	   -123.74644878	    142.34426832	     37.90804795	     -8.38346501	     -1.66662757	   -122.05843803	    107.54284253	     46.60075636
      5.95000000	    -12.18672128	      0.78887264	      2.35667579	      0.37181732	      1.20499613	     -0.06830401	     17.96458976	     -5.27096829	     -0.44139134	      7.79679456	      0.13607974	    -24.35621193	     -3.03305556	     -7.49999987	     27.88891599	     -5.42605404	      0.06695895	     27.14335115	      0.47374085	    -17.60099428	      2.81121764	     -7.49999987	    -15.19103525	     -2.53451578	     -2.48527283	     -3.16286270	      1.88570975	   -123.53073899	    142.28875568	     39.16443327	     -9.20083838	     -1.73044739	   -121.62675742	    108.75213143	     47.16705422
      5.95416670	    -11.74017388	      0.90000308	      2.31276841	      0.37128725	      1.20383703	     -0.06810614	     17.34795569	     -5.41005360	     -0.63571649	      7.27478270	      0.12696891	    -23.65447325	     -2.83546917	     -7.49999987	     27.39795449	     -5.30836733	     -0.03168615	     27.07172219	      0.47249069	    -17.14571253	      2.90855070	     -7.49999987	    -16.04350225	     -2.18043716	     -2.62732699	     -2.03390126	      2.79739597	   -119.15775512	    139.53554568	     36.30400169	     -9.36146143	     -2.08537563	   -122.44041916	    110.64775898	     39.02698776
